<svg width="29" height="29" viewBox="0 0 29 29" fill="none" xmlns="http://www.w3.org/2000/svg">
<path d="M24.9027 3.65606C22.2583 1.21869 18.969 0 15.0408 0C10.9115 0 7.3915 1.38433 4.48677 4.15891C1.58203 6.9335 0.126709 10.3825 0.126709 14.5118C0.126709 18.4696 1.51104 21.8713 4.27379 24.7228C7.04837 27.5743 10.7754 29 15.4668 29C18.2946 29 21.0692 28.4202 23.7905 27.2548C24.6779 26.8762 25.1098 25.8586 24.7489 24.9653C24.3762 24.0424 23.3232 23.6165 22.4062 24.0069C20.0398 25.0245 17.7208 25.5333 15.4609 25.5333C11.864 25.5333 9.07755 24.4388 7.10162 22.244C5.13161 20.0551 4.14364 17.4816 4.14364 14.5296C4.14364 11.3231 5.2026 8.64912 7.31459 6.50163C9.42067 4.36006 12.0178 3.28335 15.0941 3.28335C17.9278 3.28335 20.3238 4.16483 22.276 5.92778C24.2283 7.69074 25.2044 9.90922 25.2044 12.5832C25.2044 14.4113 24.7548 15.9376 23.8615 17.1503C22.9682 18.369 22.0394 18.9725 21.0751 18.9725C20.5545 18.9725 20.2942 18.6944 20.2942 18.1324C20.2942 17.6769 20.3297 17.1444 20.3948 16.5292L21.4951 7.53101H17.7089L17.4664 8.41248C16.5021 7.62566 15.4431 7.22929 14.2954 7.22929C12.4733 7.22929 10.9115 7.95696 9.6159 9.40636C8.31439 10.8558 7.66955 12.7252 7.66955 15.0088C7.66955 17.2391 8.2434 19.0435 9.39701 20.41C10.5506 21.7825 11.935 22.4629 13.5559 22.4629C15.0053 22.4629 16.2418 21.8535 17.2711 20.6408C18.0461 21.8062 19.1879 22.386 20.6965 22.386C22.915 22.386 24.8317 21.4217 26.4468 19.4871C28.0618 17.5585 28.8723 15.2277 28.8723 12.5004C28.8723 9.04549 27.5531 6.09343 24.9027 3.65606ZM16.1826 17.2687C15.5141 18.1679 14.7154 18.6234 13.7866 18.6234C13.1536 18.6234 12.6449 18.2921 12.2603 17.6295C11.8699 16.967 11.6746 16.1446 11.6746 15.1567C11.6746 13.938 11.9468 12.9559 12.4911 12.2105C13.0353 11.4651 13.7097 11.0865 14.5143 11.0865C15.2124 11.0865 15.8336 11.3645 16.3778 11.9266C16.9221 12.4886 17.1942 13.234 17.1942 14.1687C17.1883 15.3341 16.8511 16.3635 16.1826 17.2687Z" fill="#544949"/>
</svg>
