<?xml version="1.0" encoding="utf-8"?>
<!-- Generator: Adobe Illustrator 21.0.0, SVG Export Plug-In . SVG Version: 6.00 Build 0)  -->
<svg version="1.1" id="Слой_1" xmlns="http://www.w3.org/2000/svg" xmlns:xlink="http://www.w3.org/1999/xlink" x="0px" y="0px"
	 viewBox="0 0 112.6 106.9" style="enable-background:new 0 0 112.6 106.9;" xml:space="preserve">
<style type="text/css">
	.st0{clip-path:url(#SVGID_2_);}
	.st1{enable-background:new    ;}
	.st2{fill:#2262DB;}
</style>
<title>archiminds</title>
<g>
	<defs>
		<path id="SVGID_1_" d="M50.2,2.1c-0.2,0-0.3,0.1-0.5,0.1c-0.5-0.1-0.9,0.1-1.3,0.3c-0.6,0.4-1.3,0.6-2,0.5c-1-0.1-1.9,0-2.8,0.4
			c-0.3,0.1-0.7,0.3-1,0.5h-0.1c-1,0-1.9,0.3-2.6,1c-0.2,0.2-0.5,0.3-0.7,0.5c-0.4,0.2-0.8,0.2-1.2,0.2h-0.4c-0.8,0-1.6,0.1-2.4,0.2
			c-1.4,0.2-2.6,0.8-3.7,1.7c-0.3-0.1-0.6-0.1-0.9-0.1c-1.1,0.1-2.2,0.3-3.2,0.8l-0.5,0.2c-0.6,0.2-1.1,0.5-1.3,1.1l0,0
			c-0.5,0.1-0.9,0.3-1.3,0.7c-0.8,0.6-2.1,1.7-2.5,2.1c-0.2,0-0.5,0-0.7,0c-0.4,0-0.6,0.2-1.9,1.2c-0.6,0.5-1.4,0.9-2.3,1
			c-0.4,0.1-1,0.2-1.6,0.5c-2.4,0.8-4,3.2-3.8,5.8c-0.6,0.2-1.1,0.5-1.5,1c-0.3,0.4-0.5,0.8-0.7,1.2l-0.1,0.5
			c-0.1,0.5-0.3,1-0.5,1.5c0,0.1-0.1,0.1-0.1,0.2c-0.1,0.1-0.1,0.2-0.2,0.2c-1.3,0.9-1.9,1.7-1.8,2.3l-0.2,0.3
			c-0.6,0.9-0.9,2-0.8,3.1c0,0,0,0.1,0,0.1l-0.1,0.1c-1.2,1.1-1.6,2.7-1.1,4.2c0.1,0.2,0.1,0.5,0.2,0.7c-2.2,0.8-2.2,3.1-2,5.3
			c0,0.1,0,0.2,0,0.3v0c0.1,0.9,0.5,1.7,1,2.3C4.3,45,5.1,45.6,6.1,46c0.4,0.3,0.8,0.6,1.1,1c0.4,0.6,1,1.1,1.6,1.4
			c0.4,0.2,0.9,0.3,1.4,0.2c0.5,0,1,0,1.5,0l0.8,0.1c0.2,0,0.3,0.1,0.5,0.1c0.6,0.2,1.2,0.6,1.7,1.1c1.1,1.1,2.4,1.9,3.9,2.3
			c2.5,0.6,5,1,7.5,1.1c1.3,0.1,2.4,0.1,3,0.1c0,0.3,0,0.6,0.1,0.8c-0.6,0.9-0.7,2-0.3,3c1,2.4,3.1,4.2,5.7,4.8
			c0.4,0.1,0.8,0.2,1.2,0.2l0.1,0.1c1,1.3,4.4,4,7.7,4c0.5,0,1-0.1,1.4-0.2l1.2-0.3c2.2-0.4,4.1-1.5,5.5-3.3l0.2,0.5
			c1.3,2.6,4,4.1,6.9,4c1.5,0,2.9-0.5,4.2-1.3c0.3,1.5,1,2.9,2.1,4.1c1.6,2,3.9,3.3,6.5,3.8c0.5,0.1,0.9,0.2,1.4,0.4
			c1.2,0.5,2.1,1.5,2.6,2.7c0.1,0.3,0.3,0.5,0.5,0.8c0.5,0.8,1.2,1.3,2.1,1.6c0.6,0.3,1.2,0.6,2.2,1.2c2.2,1.3,3.2,1.9,4,1.9
			c0.2,0,0.4,0,0.6-0.1c0.7,0.5,1.5,0.8,2.4,0.8c0.3,0,0.7-0.1,0.8-0.4c0.2-0.3,0.1-0.7-0.1-1L88,81.4c-1-1.3-1.7-2.8-2.1-4.4
			c-0.1-0.9-0.3-1.7-0.6-2.5c-0.1-0.3-0.2-0.7-0.3-1.2c-0.2-0.6-0.3-1.2-0.5-1.9l0.8,0.1l0.9,0.1h0.1h0.6c7.9,0.3,9.8-4.3,10.6-6.2
			c0.1-0.2,0.2-0.4,0.3-0.7c0.6-0.5,0.8-0.9,0.6-1.4c0.6-0.6,0.8-1.5,0.5-2.4v-0.1c0.6-1.2,0-1.8-0.4-2c0.3-0.4,0.3-1,0-1.4
			c0,0-0.1-0.1-0.1-0.1c0.3-1.5,0.1-1.9-0.2-2.4c-0.1-0.1-0.1-0.2-0.1-0.3c-0.2-0.7-0.7-1.2-1.4-1.4c-0.1,0-0.1,0-0.1,0
			c-0.3-0.6-1-0.9-1.7-0.9h-0.1c-0.2-1-0.9-1.8-1.8-2.2c0.4,0.1,0.8,0.1,1.1,0.1c0.8,0.1,1.7,0,2.5-0.1c0.9,0.9,2.3,1,4.4,0.1
			c0.8,0.7,1.8,1.1,2.8,1.1c1.2,0.1,2.3-0.6,2.7-1.7c1.3-0.3,2.3-1.1,2.9-2.3c0.3-0.9,0.2-1.9-0.3-2.7c-0.4-0.9-0.6-1.9-0.5-2.8
			c0.1-0.2,0.2-0.3,0.3-0.5c0.2-0.7,0.3-1.4,0.1-2.1c-0.1-0.4-0.1-0.7-0.2-1.1c-0.4-2-1.7-3.6-3.4-4.6c0.7-1.2,0.9-2.6,0.6-3.9
			c-0.2-0.7-0.7-1.4-1.4-1.7c-0.4-0.2-0.8-0.6-1-1c-0.4-0.9-1.1-1.7-1.9-2.2c0.1-1,0.3-2.8-0.5-3.6c-0.3-0.4-0.6-0.9-0.8-1.4
			c-0.3-0.7-0.7-1.3-1.2-1.8c-0.3-0.2-0.6-0.3-1-0.4c-0.7,0.1-1.4,0.3-2,0.8c-0.1-0.4-0.2-0.7-0.4-1.1c-0.6-1-1.4-1.9-2.3-2.6
			c-0.1-0.5-0.3-1.1-0.5-1.6c-0.2-0.4-0.4-0.8-0.8-1.2c-1-1.3-2.5-2.1-4.1-2.3l-0.9-0.2l-0.6-0.2l-0.1-0.1c-1.6-1.5-3.4-2.9-5.4-4
			c-1.1-0.7-2.4-1-3.7-1c-0.5,0-1.1,0.1-1.6,0.2c-0.2,0.1-0.5,0.2-0.6,0.4l0,0c-0.5-0.2-1-0.3-1.5-0.1l-0.2-0.1
			c-1.1-1-2.5-1.5-3.9-1.5c-0.6,0-1.2,0.1-1.8,0.3c-0.5,0.1-1,0.2-1.5,0.2c-0.9,0-1.9-0.1-2.8-0.3l0,0c-0.2-0.2-0.4-0.4-0.7-0.5
			c-0.5-0.2-1-0.3-1.5-0.3c-0.6,0-1.1,0.1-1.6,0.1c-1.1,0.2-2.6,0.4-3.6,0.6l-0.9,0.2l0,0c-0.8-0.6-1.8-1-2.9-1.1
			c-0.5-0.1-1-0.1-1.5-0.1C50.7,2,50.5,2,50.2,2.1"/>
	</defs>
	<clipPath id="SVGID_2_">
		<use xlink:href="#SVGID_1_"  style="overflow:visible;"/>
	</clipPath>
	<g class="st0">
		<path d="M85,72.7c-0.1,1.4-0.4,2.8-0.4,4.2c0,0.4,0.5,0.9,0.9,1.1c2,0.9,4.2,1.3,6.3,1.1c4.1-0.3,8.1-0.7,12.4-1.1
			c0.2,1.9,0.4,3.9,0.6,6.1l-1.4,0.7c-2.1,0.3-4.3,0.6-6.4,0.8c-2.6,0.3-5.1,0.3-7.7,0.8c-2.9,0.6-5.9-0.5-7.7-2.8
			c-1.6-2.3-3.1-4.7-4.4-7.2c-0.2-0.3-0.2-0.7-0.1-1c1-2.8,0.5-6,2.5-8.4c0.4-0.6,0.7-1.2,0.9-1.8c-2.3,2-4.5,9.1-3.8,11.6
			c0,0.1,0.1,0.2,0.1,0.3c1.2,2.6,2.3,5.3,4.5,7.2c1.7,1.4,3.6,3,5.9,2.8c5.1-0.4,10.1-1.2,15.2-1.8c0.4-0.1,0.7-0.3,1-0.5
			c0.9,0.3,2.4-0.8,2.8,1.4c-1.9,0.4-3.8,0.9-5.7,1.3c-1.7,0.4-3.4,0.8-5.1,1.1c-1.2,0.3-2.5,0.3-3.8,0.2c-2.4-0.3-4.8-0.9-7.2-1.7
			c-3.7-1.3-5.5-4.6-7.4-7.8c-1.3-2.2-1.8-4.3-0.4-6.6c0.2-0.2,0.3-0.5,0.3-0.8c-0.4-3,1.6-4.9,2.9-7.2c1.3-2.2,2.9-4.7,4.4-7
			c1.1-1.8,2.2-3.5,3.5-5.2l-7.1,12l0.3,0.3c0.3-0.3,0.6-0.7,0.9-1.1c3.5-5.7,7-11.4,10.6-17c1.1-1.4,2.3-2.7,3.6-3.8
			c0.6-0.6,1.1-1.2,1.7-1.8c-4.2,2.4-6.3,6.7-9.3,10.1c0.6-0.8,1.1-1.5,1.6-2.2c0.6-0.7,1.1-1.5,1.6-2.3c0.3-0.9,0.5-1.8,0.5-2.8
			c2.2-0.6,4-2,5.2-3.9l-4.7,3.4c-0.6-1.7-1.2-3.1-1.7-4.5c0-0.3,0.1-0.6,0.3-0.8c2-1.2,3.9-2.4,5.9-3.6c0.8-0.5,1.2,0,1.1,0.7
			c-0.2,1.3-0.2,2.7-0.1,4l1-4.3l-0.8,5.4c0.5-0.9,0.9-1.9,1.2-2.9c0.5-2.8-0.1-5.7-1.7-8.1c-2.5-4-5.9-7.4-9.8-10
			c-0.3-0.2-0.7-0.3-1-0.4c2.3,2,4.6,3.7,6.5,5.8c2.6,2.8,5.1,5.8,5.5,9.9c-1.9-1.2-1.5-3.8-3.1-5.3c-1-1.1-1.9-2.3-2.7-3.6
			c-0.5-0.7-1-0.7-1.6-0.1s-1.3,1.2-2.1,1.8c-2.2-1.6-4.3-3.3-6.6-4.8c-3.5-2.3-7-4.4-10.6-6.6c-2-1.1-3.9-2.4-5.7-3.7
			C64.1,9.6,60.6,8.7,57,8c-3-0.7-6.1-1.1-9.2-1.3c-2.1,0-4.6-0.1-6.2,2.1c-0.4,0.5-0.9,0.9-1.4,1.3c-1.2,1.3-2.4,2.6-3.7,4
			c-1.2-0.5-1.2-0.5-3,1.4c-1.9-1-2-1.4-0.7-2.9C35,10,38,8,41.3,7.1c0.2-0.1,0.3-0.2,0.5-0.3c0.5,0,1.1,0,1.6,0
			c3.5-0.6,7-0.6,10.5,0.1c4.8,1.1,9.6,2.2,14.4,3.5c3.8,1.1,7.5,2.4,11.2,3.9c2.2,0.8,4.2,2,6.3,3c-0.5-0.6-1-1.1-1.7-1.4
			c-4.6-2.4-9.5-4.3-14.5-5.7C63.3,8.4,56.9,6.5,50.2,6c-2.8-0.2-5.6,0.5-8.4,0.8c-2.5-0.1-4.5,1.2-6.3,2.6c-1.6,1.2-2.9,2.6-4.5,4
			l-4.4-3.2C29.5,6,34,4.3,38,1.7l4.1-0.9l9.9-0.7c3.5,0.6,7.1,1.1,10.6,2c5.3,1.4,10.5,3.1,15.8,4.7c4.8,1.3,9.3,3.6,13.3,6.6
			c1.1,0.9,2.3,1.6,3.5,2.3c0-0.2,0-0.4-0.1-0.5c-0.2-0.2-0.4-0.4-0.6-0.5c-4-2.7-7.8-5.6-12.6-7.2c-7.2-2.4-14.4-4.9-21.9-6.4
			c-2.4-0.5-4.8-0.9-7.1-1.4c1.8,0.1,3.5,0.3,5.3,0.6C64,1.9,69.9,3.5,75.8,5.2c3.3,1,6.6,2.2,9.9,3.2c1.1,0.3,2.2,0.5,3.3,0.5
			c0.3,0,0.8-0.4,1-0.7c0.5-0.6,1-1.3,1.5-2c0.4,0.2,0.7,0.4,1.1,0.6c2.6,2.1,5.6,3.9,7.9,6.3c3.2,3.5,7.1,6.6,9.1,11
			c1.4,3.7,2.6,7.4,3.5,11.2c0,0.5-0.2,1-0.6,1.4c-1.1,0.8-2.3,1.4-3.5,2c-2,0.9-3.4,2.6-4.1,4.6c-1.3,3.6-3.2,6.9-5.8,9.8
			c-2.6,3.1-4.6,6.5-7,9.7c-1.6,2.1-3.3,4.1-4.9,6.2s-2.1,4.1-0.7,6.3c0.6,1,1.6,1.7,2.7,2c1.6,0.3,3.2,0.3,4.9,0.2
			c3.4-0.2,6.8-0.4,10.2-0.6c-0.1,0.1-0.2,0.3-0.3,0.3c-2.6,0.3-5.3,0.6-8,0.8c-2.1,0.2-4.1,0.3-6.2,0.3c-4.1,0-4.7-0.6-4.6-4.6
			C85.2,73.5,85.2,73.1,85,72.7l1.8-6.1C85.5,68.4,84.9,70.5,85,72.7 M97.3,54.2c1.1-1.5,2.3-3,3.4-4.6c2.5-3.6,4.4-7.6,5.4-11.8
			c0.5-2,0.4-4.1-0.4-6C107,40.8,101.6,47.4,97.3,54.2 M105.2,30.1c-1.7-5.5-4.5-10.4-9.3-13.9C100.3,20,102.9,25,105.2,30.1
			 M96.6,55.2l-0.2-0.1l-4.8,6.5l0.2,0.1L96.6,55.2 M87.3,66.2l0.2,0.3c1.5-0.8,2.9-1.7,3.3-3.2L87.3,66.2"/>
		<path d="M123.2,32.4c2.2,6.6,4.3,13,6.5,19.3c0.1,0.7,0.3,1.4,0.6,2c0.6,1.2,0.1,1.7-0.9,1.8c-4,0.4-6.9,2.7-9.9,5
			c-1.4,1.1-2.9,2.1-4.4,3.1c-1.8,1.1-2.6,0.9-3.7-1c-1.4-2.2-2.6-4.6-3.9-6.8c-1.1-2-2.1-3.9-3.1-5.9c-0.1-0.5-0.2-1.1-0.1-1.6
			c0,0,0-0.1,0.1-0.1c1-2.2,1.5-4.8,3-6.5s4-2.6,6-3.7C116.4,36.1,119.6,34.4,123.2,32.4"/>
		<path d="M-9.8,9.7c0-0.3,0-0.8-0.1-1c-1.1-1.6-0.2-2.7,0.8-3.9C-8.1,3.5-7.1,2-5.9,0.4c3.5,8.7,6.3,17.7,13.1,24.4
			c-1.7-2.1-3.4-4.4-4.8-6.8c-1.9-3.5-3.4-7.1-5-10.7C-3.5,5.2-4.3,3-5.1,0.8c-0.2-0.6-0.1-1.2,0.2-1.7c1.1-1.6,2.3-3.2,3.7-5
			c0.8,1.7,1.4,3.2,2.1,4.7c0.9,1.9,1.7,3.8,2.6,5.6c0.4,0.6,0.3,1.5-0.3,2c-1,1-1.9,2-2.7,3.1C0.1,10,0,10.6,0.1,11.2
			c0.8,3.6,2.8,6.7,4.8,9.8c1.4,2.1,3.1,3.8,5.2,5.2c0.7,0.5,4.2,0.6,4.8,0.1c0.2-0.2,0.3-0.5,0.3-0.8c0.1-0.8,0.3-1.4,1.3-1.4
			c0.2,0,0.5-0.2,0.6-0.4c1-1.8,2.1-3.6,3.2-5.5l-3.1-2.3c0.7-1.2,1.3-2.3,2.6-2.8c0.5-0.2,0.9-0.6,1.2-1c0.4-0.6,0.8-1.2,1.6-0.5
			s1.9,1,1,2.3c-1.6,2.4-3.1,4.9-4.7,7.4c-0.8,1.2-1.5,2.5-2.3,3.6c-1.7,2.3-3.9,3.7-7.1,1.3c-0.4-0.3-0.9-0.6-1.6-1
			c3.2,3.8,6.7,3.7,8.9,0.2s4.4-7,6.6-10.4c0.3-0.5,0.6-0.9,1.1-1.5c1.3,1,2.7,1.9,3.9,2.9c0.3,0.3,0.4,0.8,0.2,1.2
			c-2.4,3.9-4.9,7.7-7.4,11.6c-0.4,0.5-0.9,1-1.5,1.4c-0.2,0.2-0.7,0.3-0.7,0.5c-0.1,1.8-1.9,1.7-2.9,2.5H16
			c-6.3,1-10.8-1.8-14.3-6.8c-1.8-2.6-3.5-5.4-5.3-8c-0.4-0.6-0.9-1-1.5-1.4c-0.7-0.5-1.3-0.4-1.9,0.4c-1,1.2-2.1,2.3-3.3,3.3
			c-0.3,0.2-0.8,0.2-1.3,0.2c0.1-0.4,0.3-0.7,0.5-1C-8.7,17.9-7,12.9-9.8,9.7"/>
		<path d="M103,50.2c2.1,3.8,4,7.4,6,11c0.8,1.2,1.7,2.4,2.7,3.4c0.6,0.6,0.6,1,0,1.4c-1,0.7-2,1.3-3,2c-2.1,1.4-3.5,3.5-4,6
			c-0.2,0.9-1,1.7-1.9,1.7c-1.4,0.2-2.7,0.4-4.1,0.5c-2.6,0.1-5.1,0.1-7.7,0.2c-1.5,0.1-2.9-0.2-3.5-1.7c-0.8-1.5-0.6-3.3,0.3-4.7
			c4.2-5.5,8.3-11.1,12.5-16.6C101.1,52.5,102,51.5,103,50.2"/>
		<path d="M84.5,0.9c-0.4,1.8-1.2,2.1-2.8,1.5c-6.3-2.2-12.6-4.3-19-6.5c-3.6-1.1-7.3-1.4-11-1c-0.8,0.1-1.4,0.2-2.1-0.6
			C49.2-6.1,48-6,46.9-6.2c0.1-1.5,0.3-3,0.5-4.7c0.3-2.9,0.5-3,3.4-2.9c4.3,0.2,8.7,0.3,13,0.5c1,0,1.9,0.3,2.7,0.9
			c5.7,4.1,11.3,8.3,16.9,12.4L84.5,0.9"/>
		<path d="M53.5,68c1.8,3.2,3.5,6.1,5.1,9.1c0.5,0.9,0.7,2,1.2,2.9c0.6,1.4,1.5,2.6,2.5,3.7c2.8,2.6,5.7,5.2,8.8,7.6
			c2.3,1.6,4.1,3.8,5.3,6.3c0.4,0.8,0.3,1.4-0.3,1.7c-0.5,0.2-1.1,0.1-1.5-0.2c-2.4-2-4.7-4-7.1-6.1c-5-4.5-10.2-9-15.1-13.7
			c-2.5-2.4-3.8-5.8-3.7-9.3c0.1-0.4,0.3-0.7,0.7-0.9C50.8,68.6,52.3,68.3,53.5,68"/>
		<path d="M85.6,1.8l5,3.7c-1.1,2.3-2.1,2.7-4.9,1.8c-5-1.7-9.9-3.6-14.9-4.9c-7.2-1.8-14.3-4.4-21.9-4c-2.8,0-5.6,0.2-8.4,0.7
			c-2.6,0.6-4.4-0.4-6.3-1.7c-0.4-0.2-0.8-0.5-1.2-0.9c-0.2-0.4-0.3-0.8-0.1-1.2C33-5,33.9-5.2,34-5.1c1.4,1.3,3.1,0.9,4.8,0.8
			c2.9-0.2,5.8-0.3,8.8-0.4c0.3,0,0.7-0.1,0.8,0.1c1.1,1.5,2.6,0.8,4,0.8c2.5-0.1,5-0.1,7.5,0.1c1.8,0.4,3.6,1,5.3,1.7
			C70.9-0.1,76.5,1.7,82,3.7c1.4,0.5,2.3,0.4,3-1C85.2,2.4,85.4,2.1,85.6,1.8"/>
		<path d="M77.5,96.9c-0.1-0.1-0.3-0.2-0.3-0.3c-0.9-2.9-3.2-4.4-5.4-6.1c-2.9-2.3-5.6-4.7-8.4-7.1c-1.5-1.4-2.6-3.1-3.1-5.1
			c-0.5-1.8-1.8-3.3-2.6-4.9c-0.8-1.5-1.5-3-2.1-4.5c-0.3-0.5-0.2-1.2,0.3-1.5c0.2-0.1,0.3-0.2,0.5-0.2c1.6-0.4,3.1-0.9,5-1.4
			c0.1,2.2,0.1,4.2,0.4,6.2c0.6,4.3,0.9,8.8,5.3,11.4c1.4,0.8,2.5,1,3.8,0.1c0.6-0.6,1.7-0.6,2.3,0c0.1,0.1,0.2,0.2,0.2,0.3
			c1.1,1.3,2.2,2.5,3.4,3.7c0.9,0.8,1.9,1.5,3,2.1c1.8,0.9,2,1.2,0.9,2.8S78.7,95.3,77.5,96.9"/>
		<path d="M48.8,21.7c-0.1-0.6-0.2-1.1-0.2-1.7c0.2-3.6,0.5-7.2,0.6-10.8c0-1.1,0.3-1.3,1.3-1.1c3.7,0.8,7.5,1.5,11.2,2.2
			c0.9,0.2,1.3,0.5,1,1.5c-0.9,3.1-1.6,6.2-2.5,9.3C60,21.6,59.6,21.9,59,22c-3.2,0-6.3-0.2-9.5-0.3L48.8,21.7"/>
		<path d="M63.9,77.6c-0.3-2.7-0.7-5.3-1-7.8c-0.1-0.7-0.1-1.5-0.1-2.2c-0.2-2.2-0.2-2.1,1.9-2.6c3.4-0.8,6.7-1.7,10.1-2.4
			c1.9-0.3,3.7-0.5,5.6-0.6c-0.2,0.4-0.4,0.8-0.6,1.2c-1.1,1.8-2.9,3.4-3.3,5.4c-0.8,3.5-3.6,4.4-6.1,5.7
			C68.3,75.3,66.2,76.4,63.9,77.6"/>
		<path d="M47.9,7.7c0,1.5,0.1,2.8,0.1,4.1c-0.1,3-0.3,6-0.6,9c0,0.3-0.4,0.9-0.6,0.9c-2.6-0.1-4.7,1.3-7,2.3
			c-0.7,0.3-1.3,0.6-2.1,0.9c-0.7-1.9-1.5-3.6-2.1-5.4c-0.1-0.4,0-0.8,0.1-1.1c1.5-4,4.3-7,7.5-9.6C44.2,7.9,46.1,8,47.9,7.7"/>
		<path d="M128,60.6c-1.9,2.6-3.8,4.9-5.5,7.5s-3.4,4.2-6.6,4.4c-2.6,0.1-5.1,1.1-7.7,1.7c-0.3,0-0.6,0.1-0.8,0.1
			c-0.9-2.7-0.7-3.8,1.8-4.8c3.2-1.3,5.6-3.5,8-5.6c2.1-1.8,4.4-3.3,6.7-4.9c0.6-0.4,1.1-0.7,1.8,0C126.4,59.5,127.2,60.1,128,60.6"
			/>
		<path d="M63.6,56.3c0.7-1.8,1.3-3.6,1.8-5.5c0.4-2.5,2-3.8,3.8-5.1c2.6-1.9,5.3-3.8,8.1-5.9c0.3,1.5,0.6,2.9,0.9,4.3
			c0.3,1.7,0.6,3.3,0.9,5c0.3,0.8-0.1,1.8-0.9,2.1c-0.1,0-0.2,0.1-0.2,0.1c-3.1,1.2-6.1,2.5-9.2,3.6C67.2,55.5,65.5,55.8,63.6,56.3"
			/>
		<path d="M62.7,64.1c-0.2-1.4-0.4-2.6-0.4-3.9c-0.1-1.6,0.6-2.2,2.1-2.7c3.4-1.2,6.8-2.4,10.2-3.7l4.8-1.7c0.4,2.4,0.8,4.6,1.2,6.8
			c0.2,0.6-0.1,1.2-0.6,1.4c-0.1,0-0.2,0.1-0.4,0.1c-2.8,0.5-5.5,1.1-8.3,1.7c-2.5,0.6-4.9,1.2-7.3,1.8C63.6,63.9,63.2,64,62.7,64.1
			"/>
		<path d="M8.7,52.2c-0.7,3.1-1.6,6-2,8.9c-0.3,2.5-1.7,3.6-3.9,4.2c-1.6,0.5-3.3,0-4.3-1.3c-0.9-1.4-1.7-2.9-2.5-4.4
			c-0.1-0.2-0.2-0.4-0.2-0.6c0.9-1.3,1.6-3.3,2.9-3.9C1.8,53.9,5.2,53.2,8.7,52.2"/>
		<path d="M65.2,43.8l-3.5-3.3c0.8-1.3,1.7-2.9,2.7-4.5c1.4-2.4,2.9-4.8,4.4-7.2c0.4-0.8,0.8-0.8,1.7-0.5c2.8,1,3.5,3.6,4.5,5.9
			c0.2,0.4-0.5,1.5-1.1,2c-2.4,2.2-4.8,4.3-7.2,6.4L65.2,43.8"/>
		<path d="M60.7,23.7c3,0,5.4,1.7,7.7,3.5c-1,1.8-2,3.6-3.1,5.3c-1.4,2.2-2.8,4.4-4.2,6.6c-0.4,0.7-0.8,0.8-1.6,0.3
			c-1.1-0.8-2.4-1.4-3.3-1.9L60.7,23.7"/>
		<path d="M114.6,35.4c-1.7-7.2-3.6-14.1-9.7-19l0.4-0.3l8.2,6c2.6,1.9,5.1,3.8,7.7,5.7c0.4,0.3,0.8,0.7,1,1.2c0.6,2,0.5,2-1.4,3
			c-1.7,0.8-3.3,1.8-4.9,2.8C115.4,35,115.1,35.1,114.6,35.4"/>
		<path d="M75.4,73.2c-2.1,3.1-0.2,5.6,1.4,7.9c1.9,2.8,3.7,5.7,7.1,7.1l-1.2,2.2c-2-1.6-3.9-3.1-5.7-4.7c-1.2-1-2.1-2.3-3.3-3.4
			c-0.6-0.4-1.3-0.6-2-0.5c-1.2,0.3-2.2,1.5-3.5,0.7c-1.4-1-2.8-2.2-4.1-3.4L74.9,73L75.4,73.2"/>
		<path d="M13.3,42.6l-1.4-7.2c4.7,0,9.3-0.5,13.1-4.5c0.5,2.5,1,4.6,1.3,6.7c0.1,0.4-0.7,1-1.2,1.2c-1.4,0.5-3,0.8-4.4,1.3
			C18.3,41,15.9,41.8,13.3,42.6"/>
		<path d="M-9,24.8l3.9-3.3c2,2.7,3.9,5.3,5.8,7.9c0.9,1.3,1.9,2.5,2.9,3.6c0.4,0.5,1.3,0.5,1.8,0.8c-1.1,1-2.5,2.2-3.7,3.3
			c-0.7,0.7-1.2,0.2-1.6-0.3c-2-2.6-3.9-5.2-5.9-7.8C-6.7,27.7-7.7,26.4-9,24.8"/>
		<path d="M16.1-7.5c0.2,0.6,0.2,1.2,0.1,1.7c-0.4,1.1-1.1,2.1-1.6,3.2c-0.5,1.1-1,2.3-1.3,3.4c-0.4,1.1,0,2.3,1,2.8
			c1.2,0.7,1.1,1.5,0.2,2.5c-1.1,1.2-2.1,2.5-3.2,3.7c-0.3,0.3-1.1,0.5-1.3,0.4C8.7,9,7.3,7.8,5.9,6.5C5.4,6,5.3,5.2,5.8,4.6
			c0-0.1,0.1-0.1,0.2-0.2c3.3-4,6.5-8,9.8-11.9L16.1-7.5"/>
		<path d="M48.6,23c0.9,0,1.6-0.2,2.4-0.1c2.4,0,4.7,0.2,7.1,0.2c1.1,0,1.5,0.3,1.1,1.4c-0.6,1.9-1.1,3.9-1.8,5.8
			c-0.1,0.3-0.8,0.5-1.3,0.6c-1.6,0-3.2,0-4.8-0.1c-2.4,0-3.2-1.1-3-3.4C48.5,26,48.5,24.5,48.6,23"/>
		<path d="M13.6,50.7c0.6,2.3,1.3,4.7,1.8,7.1c0.7,2.9,0.6,2.9-2.3,3.9c-1.4,0.5-2.8,1.1-4.1,1.6c-0.5,0.2-1.1,0.3-1.8,0.5l2-8.8
			c0,0,0-0.1,0-0.2C9.4,52.3,10.1,50.3,13.6,50.7"/>
		<path d="M28.2,45.7l2.2,9.8L24.2,58c-0.8-3.2-1.6-6.3-2.4-9.4c0-0.4,0.1-0.7,0.4-0.9C24.1,47,26.1,46.4,28.2,45.7"/>
		<path d="M89.5,36.2l-5.3-7.5c0.3-0.3,0.7-0.6,1.1-1c1.8-1.8,1.8-1.8,3.4,0c0.7,0.8,1.3,1,2.1,0.2c0.6-0.5,1.2-0.9,1.9-1.3l3.9,5.3
			L89.5,36.2"/>
		<path d="M76.8,33.8c-0.2-0.2-0.3-0.5-0.5-0.8c-0.9-2.5-2.8-4.5-5.2-5.5c-1-0.4-0.9-1-0.4-1.8c0.3-0.4,0.6-0.8,0.8-1.2
			c1.8-2.8,1.8-2.8,4.5-0.9c2,1.4,3.8,3,5.7,4.5c0.6,0.5,0.6,1,0,1.5L76.8,33.8"/>
		<path d="M9.3,24.6c-1.5-1.8-2.7-3.2-3.8-4.7c-0.1-0.4-0.1-0.8,0.1-1.1c1.5-2,3.1-4,4.7-5.9c0.3-0.2,0.8-0.3,1.1-0.1
			c1.2,0.8,2.4,1.6,3.4,2.5c0.3,0.3,0.4,0.8,0.3,1.3C13.5,19.1,11.6,21.6,9.3,24.6"/>
		<path d="M22.8,58.3l-5.5,2.1l-2.5-10.3c1.7-0.5,3.2-1.1,4.8-1.5c0.3-0.1,0.9,0.5,1,0.9c0.6,2.2,1.1,4.4,1.7,6.6
			C22.4,56.8,22.6,57.4,22.8,58.3"/>
		<path d="M72.1,21.4c-0.9,1.4-1.7,2.7-2.6,3.9c-0.4,0.3-0.9,0.4-1.4,0.3c-0.6-0.2-1-0.8-1.6-1c-1.7-0.9-3.4-1.7-5.2-2.5
			c0.3-1.3,0.6-2.9,1.1-4.5c0.1-0.2,0.7-0.4,0.9-0.3C66.5,17.9,69.5,19.4,72.1,21.4"/>
		<path d="M29.8,30.7c-0.1-0.1-0.2-0.1-0.3-0.2c-2.8-3.2-2.8-3.3-0.4-6.8c1-1.5,2.2-3,3.6-4.9l3.5,6.5L29.8,30.7"/>
		<path d="M9.7,11.4l-5.3,7.2c-0.9-1.9-1.6-3.4-2.3-4.9c-0.1-0.1,0-0.3-0.1-0.4c-1.8-3.2,0.7-4.8,2.3-6.5L9.7,11.4"/>
		<path d="M40.8,80L37,80.4l-2-7.6c2.1-0.6,4.1-1.3,6.1-1.8c1.4-0.4,2.2,0.3,1.8,1.7C42.2,75.3,41.4,77.8,40.8,80"/>
		<path d="M56.8,54.9c1.7,1.3,1.2,3.2,1.7,4.8c0.3,1.4,0.6,2.8,0.8,4.2c0,0.2,0.1,0.3,0.1,0.4c-0.7,1.5-2.4,1-3.5,1.6
			c-0.2,0.1-1.1-0.3-1.2-0.6c-0.8-2.3-1.4-4.6-2.1-6.9c0-0.4,0.1-0.7,0.4-1C54.1,56.5,55.5,55.7,56.8,54.9"/>
		<path d="M19.9,70l-0.6,0.8c-0.7-3.1-1.3-6-1.9-8.9c0-0.2,0.4-0.7,0.7-0.8c1.5-0.5,3.1-0.9,4.9-1.5l2.2,7.7
			c-1.3,0.3-2.5,0.6-3.7,1.1C20.8,68.7,20.4,69.5,19.9,70"/>
		<path d="M57.2,52.8c-1.5-2-1.6-3.1-0.3-5.1c0.9-1.5,1.9-3,2.9-4.5c0.3-0.5,1-1.2,1.3-1.1c0.8,0.2,1.6,0.7,2.1,1.4
			c0.6,1.1,1,2.4,1.2,3.6c0,0.3-0.1,0.7-0.4,0.9c-2.2,1.6-4.4,3.2-6.6,4.8C57.5,52.8,57.3,52.8,57.2,52.8"/>
		<path d="M39.8,31.6L38,25.9c2.7-1,5.2-1.9,7.7-2.8c1.2-0.4,1.6,0.2,1.6,1.3c0,0,0,0.1,0,0.2c-0.1,1.3,0.3,3-0.3,3.9
			s-2.3,0.8-3.5,1.3S41.1,30.9,39.8,31.6"/>
		<path d="M34.9,71.4c-0.5-2.2-1.1-4.3-1.5-6.3c0-0.4,0.2-0.8,0.6-1c1.4-0.5,2.8-1,4.2-1.3c0.4,0,0.8,0.1,1,0.4
			c0.9,1.9,1.7,3.9,2.7,6L34.9,71.4"/>
		<path d="M25.1,4.6L24.1,6c-1.4,1.9-1.4,1.9-3.4,0.6c-3.2-2-3.2-2-1-4.9c0.1-0.1,0.1-0.2,0.2-0.2c0.8-0.9,1.5-2.5,2.3-2.5
			c1.5-0.1,3,0.8,4.5,1.3c0.8,0.3,0.8,0.8,0.3,1.5C26.3,2.8,25.7,3.7,25.1,4.6"/>
		<path d="M42.1,0.9L38,1.8C33.9,3,30.3,5.3,27.4,8.5c-1.4,1.6-1.8,1.6-3.7-0.1l4.8-6.5l3.1,1.7c0.5,0.3,1.1,0.6,1.5-0.2
			c0.3-0.6,0.6-1.3,1.5-1c0.1,0,0.3-0.1,0.3-0.2c0.9-2.5,3.3-1.8,5-2.1c3.4-0.4,6.8-0.6,10.2-0.6c-1.4,0.2-2.8,0.3-4.2,0.5
			S43.4,0.6,42.1,0.9"/>
		<path d="M16,33.6h0.2c1.4-0.3,3-0.1,3.3-2.1c2.9-2.1,4.1-5.5,6.2-8.3c1.4-1.9,2.5-4,3.8-6.1c0.5,0.2,1,0.6,1.4,0.9
			c0.3,0.4,0.4,0.9,0.2,1.3c-1.6,2.2-3.2,4.4-4.7,6.5l-1.3-0.1c0.1,0.4,0.2,0.8,0.2,1.2c0,0.3-0.1,0.6-0.2,0.9
			c-0.2,0.7-0.3,1.3-0.4,2c0,0.3-0.2,0.5-0.3,0.8c-2.4,2.2-5.5,3.6-8.8,3.8L15.3,34L16,33.6"/>
		<path d="M24.3,59.3l6.2-2.2l1.6,6.3l-5.9,2.5L24.3,59.3"/>
		<path d="M85.9,25.4l-2.5,2.5l-9.5-7c0.3-0.7,0.7-1.4,1.1-2c0.4-0.3,0.8-0.4,1.3-0.2c3,1.9,6,3.9,8.9,5.8
			C85.5,24.7,85.6,25,85.9,25.4"/>
		<path d="M48.1,31.6l8.5,0.8c0.2,1.9-0.7,3.7-2.3,4.8c-0.4,0.2-0.8,0.4-1.2,0.4c-1.3,0-2.7,0-4-0.1c-0.4,0-1-0.5-1-0.7
			C48.1,34.9,48.1,33.1,48.1,31.6"/>
		<path d="M11.6,11.4L16,6c1.5,1.3,3.1,2.4,4.4,3.7c0.9,0.8,0.1,1.5-0.6,2.1c-1.2,0.9-2.4,1.8-3.8,2.9L11.6,11.4"/>
		<path d="M59.9,41.1c-1.5,2.3-2.8,4.6-4.3,6.7c-0.9,1.3-2.1,0.5-3.5,0.5c0.8-3.1,1.5-6,2.4-8.8c0.1-0.3,1.2-0.7,1.7-0.5
			C57.4,39.6,58.7,40.4,59.9,41.1"/>
		<path d="M64,11.3l10.2,6.4c0,0.2-0.1,0.4-0.1,0.5c-1.7,2.6-1.1,2.2-3.6,0.9s-5-2.3-7.6-3.6L64,11.3"/>
		<path d="M79.5,41.9c-1-3.2-0.9-3.1,1.3-5.1c1.5-1.3,3-2.7,4.7-4.2l2.5,4.3L79.5,41.9"/>
		<path d="M116.5,74.9h0.9l-2.2,2.9l-2.5,3.3c-1.4,1.9-1.4,1.9-3.8,2.3c-0.1-1.8-0.2-3.7-0.4-5.5c-0.1-1,0.5-1,1.1-1.2
			c1.7-0.5,3.4-1,5-1.5L116.5,74.9"/>
		<path d="M53.4,66.6l-4.8,1.2c-0.7-2.9-1.2-5.6,0.2-8.2c0.4-0.6,0.9-1.1,1.4-1.5c0.5,0.5,1.2,1,1.4,1.6
			C52.3,61.9,52.8,64.2,53.4,66.6"/>
		<path d="M39.9,52.1l-3.6,1.4l-4.1-9c2.3-0.9,4-0.3,5,1.8C38.1,48.1,39,50,39.9,52.1"/>
		<path d="M81.8,59.4l-0.9-8.1l8.2-3.3L81.8,59.4"/>
		<path d="M64.8,49c-0.9,2.7-1.6,5.1-2.5,7.3c-1,2.1-1.3,4.5-0.9,6.8c0,0.5,0,1-0.1,1.5h-0.5c-0.4-2.2-0.7-4.5-1.2-6.7
			c-0.2-0.9-0.5-1.9-1-2.7c-0.4-0.8-0.5-1.3,0.3-1.8C60.7,52,62.6,50.6,64.8,49"/>
		<path d="M38.5,61.3c-1.7,0.6-3.1,1.1-4.5,1.4c-0.4,0-0.8-0.2-1-0.5c-0.5-1.4-0.8-2.9-1.2-4.4c-0.2-0.9,0.1-1.3,1-1.7
			c2.8-1.3,2.3-1.6,4,1.6C37.4,58.8,37.9,60,38.5,61.3"/>
		<path d="M10.1,25c1-1.4,2-2.7,3-4.1c0.9-1.1,1.8-2.2,2.6-3.4c0.8-1.2,1.6-0.4,2.3,0s1.2,0.9,0.5,1.8s-1.4,2.1-2.2,3.1
			c-0.2,0.3-0.7,0.4-1,0.6c-0.3,0.2-0.5,0.4-0.7,0.6c-0.3,0.5-0.4,1.3-0.7,1.4c-1.2,0.2-2.3,0.4-3.5,0.5L10.1,25"/>
		<path d="M11.4,34.6c-1-0.2-2-0.5-2.9-0.8c-1.2-0.6-2.1-2-3.8-1.4c-0.1,0-0.4-0.3-0.6-0.5C1.6,28.4-0.9,25-3.3,21.6
			c-1.2-1.7-1.4-1.7-3-0.5l-3.5,2.8l-1.2-1.4c1.6-1.6,3-3.1,4.5-4.5c0.5-0.2,1.1-0.2,1.5,0.1c0.5,0.5,1,1.1,1.3,1.8
			c2.2,3.1,4.2,6.3,6.6,9.3c2.1,2.7,5.2,4.5,8.5,5.2L11.4,34.6"/>
		<path d="M41.3,85.2c0.3-1.1,0.5-2.2,0.8-3.2c0.2-0.3,0.5-0.6,0.8-0.7c1.4-0.2,2.8-0.4,4.4-0.6c0.3,1.2,0.8,2.5,1,3.8
			s-1.6,2.6-2.7,2.2L41.3,85.2"/>
		<path d="M88.7,38l1.3,3.9L89.8,42l-1.3-3.4l-2.3,1.3l0.2,0.4l1.9-0.9l1.6,4.7c-2.1,0.9-4.1,1.9-6.3,2.6c-0.4,0.2-1.4-0.5-1.7-1
			c-0.4-0.7,0.2-1.2,0.9-1.5c0.8-0.3,1.5-0.8,2.2-1.3c0.6-0.5,1.2-0.9,0.8-2c-0.3-0.7,0-1.4,0.7-1.7c0,0,0.1,0,0.1,0
			C87.2,38.9,88,38.4,88.7,38"/>
		<path d="M20.7,46.3c0.2-0.9,0.3-1.5,0.4-2.1c0.1-0.4,0.3-0.8,0.2-1.1c-0.4-1.6,0.6-2.3,1.8-2.7s2.3-0.7,3.5-1.1
			c0.3,1.2,0.6,2.3,0.9,3.3s-0.1,1.5-1,1.8L20.7,46.3"/>
		<path d="M29.2,45.3l2-0.6c1.2,2.8,2.5,5.6,3.6,8.3c0.1,0.3-0.3,0.8-0.5,1.2c-0.1,0.2-0.4,0.2-0.7,0.3c-2.3,0.9-2.3,0.9-2.8-1.6
			S29.7,48,29.2,45.3"/>
		<path d="M1.3,38.7c1.7-1.5,3.5-2.9,5.3-4.3c0.5-0.3,1.8,0.5,2.5,1c0.2,0.1-0.1,1.2-0.3,1.7c-0.8,1.4-1.7,2.7-2.7,4.2L1.3,38.7"/>
		<path d="M2.7,46.2l-5.5-3.5c0.8-1,1.7-1.9,2.7-2.7c0.5-0.3,1.1-0.3,1.7-0.1c1,0.4,1.9,1.1,2.9,1.6s0.9,1.1,0.4,1.8
			C4.2,44.3,3.5,45.1,2.7,46.2"/>
		<path d="M5.2,44.3c0.4-0.3,0.3-2,1.8-1.2c3.4,1.8,3.3,1.4,2.9,3.8c-0.1,0.5-0.3,1-0.4,1.4c-0.5,2-0.5,2.1-2.4,1
			c-1-0.6-1.9-1.2-2.9-1.7c-0.7-0.4-0.8-0.8-0.4-1.4S4.7,45.1,5.2,44.3"/>
		<path d="M14.6,48.1l-1-4.4l6.7-2.4c-0.2,1.7-0.3,3.2-0.6,4.7c-0.1,0.4-0.4,0.6-0.8,0.8C17.6,47.3,16.2,47.7,14.6,48.1"/>
		<path d="M47.2,69.1c-0.2,5.6,2.1,9.7,6.5,12.7c-1.3,0.9-2.2,1.6-3.2,2.1c-0.1,0.1-0.9-0.5-1-0.9c-0.5-1.9-0.8-3.9-1.4-5.7
			c-0.4-1.3-1.1-2.4-2.1-3.4c-1.2-1.3-0.6-2.5-0.3-3.7C45.7,69.8,46.4,69.7,47.2,69.1"/>
		<path d="M36.3,26.9c0.2,0.5,0.3,0.6,0.4,0.8c1.3,2.6,1.2,3.2-1.2,4.8l-2.7,1.9c-0.6-0.8-1.2-1.5-1.8-2.2c-0.6-0.7-0.5-1.1,0.2-1.6
			C32.8,29.5,34.5,28.3,36.3,26.9"/>
		<path d="M49.7,56.7c0.6-2.3,1.1-4.3,1.7-6.2c0.1-0.3,0.7-0.7,0.9-0.7c0.8,0.2,2-0.6,2.5,0.7c0.4,0.8,0.7,1.6,1,2.4
			c0.1,0.4-0.1,0.9-0.4,1.2c-0.8,0.8-1.7,1.5-2.7,2C51.7,56.4,50.7,56.6,49.7,56.7"/>
		<path d="M75.7,36.2c1.1,1.3,1.2,2.2-0.1,3.2c-3.3,2.4-6.5,5-9.8,7.5c-0.7-0.9-0.6-1.5,0.2-2.1c2.3-1.9,4.6-3.9,6.8-5.9
			C73.8,38,74.7,37.2,75.7,36.2"/>
		<path d="M6.9,41.9l3.5-5.8h0.5c0.4,2.1,0.9,4.2,1.2,6.3c0.1,1.1-1.7,1.7-2.8,1C8.5,42.9,7.8,42.5,6.9,41.9"/>
		<path d="M36.6,54.6l3.5-1.3c0.6,2.2,1.1,4.1,1.5,6.2c0.1,0.4-0.5,1.1-1,1.3c-0.5,0.1-0.9-0.1-1.3-0.4
			C38.4,58.5,37.6,56.6,36.6,54.6"/>
		<path d="M78.2,37.4c-1.4-2.3-1.4-2.3,0.4-3.7c1-0.8,1.8-1.6,2.7-2.5c1.7-1.6,1.8-1.6,3.3,0.6L78.2,37.4"/>
		<path d="M53.5,38.6l-1,4.3l-4.7-0.2c0-1.1,0-2.2,0.1-3.3c0-0.3,0.4-0.7,0.6-0.7C50.1,38.7,51.7,38.7,53.5,38.6"/>
		<path d="M44.2,51c1.2,2.5,1.1,5.2,4,6.1l-4.5,2.3c-0.4-2.2-0.9-4.2-1.1-6.3C42.5,52.6,43.5,51.9,44.2,51"/>
		<path d="M14,62.8c-2.6,2.5-4.5,5.5-7.6,7.4l-0.4-0.2c0.3-1.4,0.6-2.8,0.9-4.3c0.1-0.2,0.2-0.4,0.4-0.5C9.6,64.3,11.8,63.5,14,62.8
			"/>
		<path d="M38.1,31.7l1,4.4c-0.8,0.6-1.4,1.3-2.6,1.1c-0.4-0.1-0.9,0.7-1.4,1.1c0,0-0.2-0.1-0.2-0.2c-1.5-2.6-1.5-2.6,0.8-4.5
			C36.4,33,37.1,32.5,38.1,31.7"/>
		<path d="M29.7,38.3l2.9-2.1l2.2,4.4c0.1,0.1,0.1,0.3,0.1,0.4c-0.9,0.6-1.8,1.1-2.7,1.5c-0.3,0.1-0.9-0.3-1.1-0.6
			C30.6,40.7,30.2,39.5,29.7,38.3"/>
		<path d="M-0.3,52.7c0.9-1.5,1.9-3.1,2.9-4.5c0.3-0.2,0.7-0.2,1-0.1C5,48.8,6.2,49.6,8,50.6L0,53L-0.3,52.7"/>
		<path d="M29.1,0.7l2.7-3.9c1,0.8,2,1.4,2.9,2.1s0.7,1.6-0.4,1.9c-0.3,0.1-0.6,0-0.8,0.2c-0.6,0.4-1.2,1.4-1.5,1.3
			C31,1.9,30,1.3,29.1,0.7"/>
		<path d="M80.7,49.9l-0.4-1.5l10.5-4c0.6,1,0.4,1.7-0.8,2.2C87,47.8,83.9,48.8,80.7,49.9"/>
		<path d="M48.8,55.8c-2.9-0.4-1.9-3.2-3.3-4.6c1.7-0.6,2.9-2.1,5-1.4L48.8,55.8"/>
		<path d="M32,35.2l-4.4,3.2c-0.4-1.4-1.1-2.5-0.8-3.4s1.4-1.8,2.3-2.5c0.2-0.2,1.1,0.4,1.5,0.8C31.1,33.9,31.6,34.6,32,35.2"/>
		<path d="M-2.1,67.9l7.9-2.2C5.4,67.5,4.4,69,2.9,70C0.9,71.1-0.4,69.2-2.1,67.9"/>
		<path d="M47.6,59c-0.3,2.1-0.7,4-0.9,5.9c-0.1,0.8,0.2,1.7,0.2,2.5c0,0.3-0.4,0.5-0.6,0.8c-0.2-0.2-0.6-0.4-0.7-0.7
			c-0.5-2-0.9-4-1.3-6.1c0-0.5,0.2-0.9,0.6-1.2C45.8,59.7,46.7,59.3,47.6,59"/>
		<path d="M17.9,69.8l-5.2-3.8l3.6-3.4L17.9,69.8"/>
		<path d="M44.5,37.8l-2.6,1.3c-0.5-2.1-1.1-4-1.3-6c-0.1-0.4,1-1,1.9-1.8L44.5,37.8"/>
		<path d="M46.8,30.3c0,2.3,0.1,4.5,0.1,6.6c-0.1,0.3-0.3,0.6-0.6,0.7c-0.3,0-0.6-0.2-0.8-0.5c-0.6-1.8-1.3-3.5-1.8-5.3
			c-0.1-0.2,0.3-0.7,0.5-0.8C45.1,30.7,46,30.5,46.8,30.3"/>
		<path d="M47.7,79.9l-5.1,0.9l2.2-6.6L47.7,79.9"/>
		<path d="M47.7,44.1l4.4-0.1c-0.4,1.5-0.6,2.7-1.1,3.9c-0.3,0.8-1.9,0.7-2.2-0.1C48.4,46.6,48.1,45.4,47.7,44.1"/>
		<path d="M46.5,44.3c0.5,1.3,0.9,2.3,1.2,3.5c0,0.4-0.1,0.9-0.5,1.2c-0.6,0.4-1.2,0.8-1.9,1.2l-1.6-4.6L46.5,44.3"/>
		<path d="M17.1,3.2c-1.1-1.9-0.4-4.3,1.5-5.3c0.5-0.3,1-0.4,1.6-0.5c0.3,0,0.6,0.2,0.8,0.4c0.1,0.3,0,0.6-0.3,0.9
			C19.5,0.2,18.3,1.6,17.1,3.2"/>
		<path d="M44.8,39.2l1.5,4l-2.8,1.2c-0.4-1.2-0.8-2.3-1.1-3.4c0-0.4,0.2-0.7,0.4-0.9C43.5,39.7,44.1,39.4,44.8,39.2"/>
		<path d="M43,50.9c-0.7-1.4-1.2-2.5-1.8-3.6c-0.9-1.7-0.7-3.3,0.1-5.4c0.9,2.8,1.8,5.2,2.4,7.7C43.9,50,43.2,50.6,43,50.9"/>
		<path d="M116.5,74.9l-1.8,0.5c-2.2,0.2-4.4,1.1-6.6,1l-0.1-0.8l10.2-2.5l0.2,0.5L116.5,74.9"/>
		<path d="M41.6,61.2c1.5,3.1,2.1,6.1,1.6,7.9c-1-2.3-2-4.2-2.8-6.2C40.3,62.6,41.1,61.9,41.6,61.2"/>
		<path d="M10.6,49.3c0-3.2,0.6-4.8,1.9-4.9c0.1,0.2,0.2,0.4,0.2,0.7c0.2,1,0.4,2.1,0.6,3.3L10.6,49.3"/>
		<path d="M35.5,39.9c1.6,0.5,2.4,0.4,2.8-1c0.1-0.3,0.6-0.6,1-0.9c0.6,1.9-0.1,3.8-1.5,4.2C36.2,42.5,36.3,41,35.5,39.9"/>
		<path d="M27.2,29l1.8,2.3l-2.2,1.9C25.6,31.4,25.8,30,27.2,29"/>
		<path d="M40.1,81.4c-0.3,0.9-0.6,1.8-0.9,2.6c-0.1,0.2-0.8,0.2-1.3,0.3c-0.3-0.9-0.3-1.9-0.3-2.8c0.1-0.3,1.4-0.3,2.2-0.5
			L40.1,81.4"/>
		<path d="M30.5,42.9c-1.7,0.8-1.9,0.7-2.2-0.8c-0.2-0.7-0.3-1.4-0.4-2.1c0-0.4,0.3-0.8,0.4-1.1h0.4L30.5,42.9"/>
		<path d="M35.4,17.8c-1.6-1-1-1.8-0.5-2.5c0.2-0.2,0.6-0.2,0.8-0.3L35.4,17.8"/>
		<path d="M81.1,47.7c-1.2-0.8-0.8-2.1-0.7-3.2c0.1-0.6,0.5-1.2,1.1-1.5C80.3,44.5,80.6,46,81.1,47.7"/>
		<path d="M95.7,34.4l-4.2,2.5l-0.2-0.3l4.2-2.6L95.7,34.4"/>
	</g>
</g>
<g class="st1">
	<path class="st2" d="M27.2,95h2.2l3.6,8.5h-2.5l-0.6-1.5h-3.2l-0.6,1.5h-2.4L27.2,95z M29.2,100.2l-0.9-2.4l-0.9,2.4H29.2z"/>
</g>
<g class="st1">
	<path class="st2" d="M33.4,97h2.3v1.3c0.4-0.9,1-1.5,2.1-1.4v2.4h-0.2c-1.2,0-1.9,0.7-1.9,2.2v2h-2.3V97z"/>
</g>
<g class="st1">
	<path class="st2" d="M37.2,100.2c0-1.8,1.4-3.4,3.5-3.4c1.3,0,2.2,0.6,2.8,1.5l-1.5,1.1c-0.3-0.4-0.7-0.6-1.2-0.6
		c-0.8,0-1.3,0.6-1.3,1.5c0,0.8,0.5,1.5,1.3,1.5c0.5,0,0.9-0.3,1.2-0.7l1.5,1.1c-0.6,0.9-1.5,1.5-2.9,1.5
		C38.6,103.6,37.2,102.1,37.2,100.2z"/>
	<path class="st2" d="M44.3,94.7h2.3v3.2c0.4-0.5,1-1,1.9-1c1.4,0,2.2,0.9,2.2,2.4v4.2h-2.3V100c0-0.7-0.4-1.1-0.9-1.1
		c-0.6,0-1,0.4-1,1.1v3.5h-2.3V94.7z"/>
	<path class="st2" d="M51.9,94.7h2.4v1.7h-2.4V94.7z M51.9,97h2.3v6.5h-2.3V97z"/>
	<path class="st2" d="M55.5,97h2.3v0.9c0.4-0.5,1-1,1.9-1c0.9,0,1.5,0.4,1.9,1.1c0.6-0.6,1.2-1.1,2.2-1.1c1.4,0,2.2,0.9,2.2,2.4v4.3
		h-2.3v-3.5c0-0.7-0.3-1.1-0.9-1.1s-0.9,0.4-0.9,1.1v3.5h-2.3v-3.5c0-0.7-0.3-1.1-0.9-1.1c-0.5,0-0.9,0.4-0.9,1.1v3.5h-2.3V97z"/>
	<path class="st2" d="M67.2,94.7h2.4v1.7h-2.4V94.7z M67.2,97h2.3v6.5h-2.3V97z"/>
	<path class="st2" d="M70.8,97H73v0.9c0.4-0.5,1-1.1,1.9-1.1c1.4,0,2.2,0.9,2.2,2.4v4.2h-2.3V100c0-0.7-0.4-1.1-0.9-1.1
		c-0.6,0-1,0.4-1,1.1v3.5h-2.3V97z"/>
	<path class="st2" d="M78.1,100.2c0-2.1,1.3-3.4,2.9-3.4c1,0,1.6,0.4,2,0.9v-3.1h2.3v8.8H83v-0.9c-0.4,0.5-1,1-2,1
		C79.5,103.6,78.1,102.3,78.1,100.2z M83,100.2c0-0.9-0.6-1.5-1.3-1.5c-0.7,0-1.3,0.6-1.3,1.5c0,0.9,0.6,1.5,1.3,1.5
		C82.4,101.7,83,101.1,83,100.2z"/>
	<path class="st2" d="M86,102.7l0.9-1.4c0.7,0.5,1.6,0.7,2.2,0.7c0.4,0,0.6-0.1,0.6-0.4s-0.4-0.4-1-0.6c-1.3-0.3-2.3-0.8-2.3-2.1
		c0-1.4,1.1-2.1,2.6-2.1c0.9,0,1.9,0.3,2.7,0.8L90.8,99c-0.7-0.4-1.4-0.6-1.9-0.6c-0.3,0-0.5,0.1-0.5,0.3c0,0.3,0.4,0.4,1.1,0.6
		c1.3,0.4,2.3,0.8,2.3,2.1c0,1.4-1.1,2.2-2.7,2.2C88,103.6,86.9,103.3,86,102.7z"/>
</g>
</svg>
