<svg width="32" height="32" viewBox="0 0 32 32" fill="none" xmlns="http://www.w3.org/2000/svg">
<path d="M24.3281 21.1687C23.2827 20.1365 21.9775 20.1365 20.9387 21.1687C20.1463 21.9544 19.3539 22.7402 18.5748 23.5392C18.3617 23.759 18.1819 23.8056 17.9222 23.6591C17.4095 23.3794 16.8635 23.153 16.3707 22.8467C14.0734 21.4017 12.149 19.5439 10.4443 17.453C9.59863 16.4142 8.84617 15.3022 8.32012 14.0503C8.21357 13.7973 8.23355 13.6308 8.43998 13.4244C9.23239 12.6586 10.0048 11.8728 10.7839 11.0871C11.8693 9.99502 11.8693 8.71652 10.7773 7.6178C10.158 6.99186 9.53869 6.37924 8.91942 5.75331C8.28016 5.11405 7.64757 4.46814 7.00165 3.83554C5.95621 2.81673 4.65106 2.81673 3.61228 3.8422C2.81321 4.62795 2.04743 5.43368 1.23505 6.20611C0.482593 6.91861 0.103036 7.79093 0.0231294 8.80974C-0.10339 10.4678 0.302803 12.0326 0.875468 13.5575C2.04743 16.7139 3.83202 19.5172 5.99616 22.0876C8.91942 25.5635 12.4087 28.3137 16.4906 30.298C18.3284 31.1903 20.2329 31.8762 22.3038 31.9894C23.7288 32.0693 24.9674 31.7097 25.9595 30.5977C26.6387 29.8385 27.4045 29.146 28.1237 28.4202C29.1891 27.3414 29.1958 26.0363 28.137 24.9709C26.8718 23.699 25.6 22.4338 24.3281 21.1687Z" fill="#544949"/>
<path d="M23.0563 15.8615L25.5134 15.442C25.1272 13.1846 24.0618 11.1403 22.4436 9.51556C20.7323 7.80423 18.5682 6.72548 16.1843 6.39254L15.838 8.86299C17.6825 9.12269 19.3606 9.95505 20.6857 11.2802C21.9376 12.532 22.7566 14.1169 23.0563 15.8615Z" fill="#544949"/>
<path d="M26.8984 5.18062C24.0617 2.34393 20.4726 0.552689 16.5105 0L16.1643 2.47045C19.5869 2.94989 22.69 4.50142 25.1405 6.94523C27.4644 9.26919 28.9893 12.2058 29.542 15.4353L31.9991 15.0158C31.3532 11.2735 29.5886 7.87748 26.8984 5.18062Z" fill="#544949"/>
</svg>
